# xmcd
#
# Track frame offsets:
#	150
#	30864
#	51923
#	72015
#	94251
#	113140
#	141595
#	160977
#	183280
#	202396
#
# Disc length: 2953 seconds
# Revision: 0
# Processed by: cddbd v1.5.2PL0 Copyright (c) Steve Scherf et al.
# Submitted via: dBpowerAMP V12.0
#
DISCID=8f0b870a
DTITLE=Patrice Rushen - Now
DYEAR=2003
DGENRE=R&B
TTITLE0=Feels So Real (Won't Let Go)
TTITLE1=Gone With The Night
TTITLE2=Gotta Find It
TTITLE3=Superstar
TTITLE4=Heartache Heartbreak
TTITLE5=Get Off (You Fascinate Me)
TTITLE6=My Love's Not Going Anywhere
TTITLE7=Perfect Love
TTITLE8=High In Me
TTITLE9=To Each His Own
EXTD=
EXTT0=
EXTT1=
EXTT2=
EXTT3=
EXTT4=
EXTT5=
EXTT6=
EXTT7=
EXTT8=
EXTT9=
PLAYORDER=
